<mxfile host="app.diagrams.net" modified="2021-10-16T03:33:12.794Z" agent="5.0 (Windows NT 10.0; Win64; x64) AppleWebKit/537.36 (KHTML, like Gecko) Chrome/94.0.4606.81 Safari/537.36" etag="4bid7A2nua_v1EO7Yu7H" version="15.5.2" type="github" pages="2">
  <diagram id="R2lEEEUBdFMjLlhIrx00" name="AubergeInn">
    <mxGraphModel dx="2035" dy="2814" grid="1" gridSize="10" guides="1" tooltips="1" connect="1" arrows="1" fold="1" page="1" pageScale="1" pageWidth="850" pageHeight="1100" math="0" shadow="0" extFonts="Permanent Marker^https://fonts.googleapis.com/css?family=Permanent+Marker">
      <root>
        <mxCell id="0" />
        <mxCell id="1" parent="0" />
        <mxCell id="C-vyLk0tnHw3VtMMgP7b-2" value="Chambre" style="shape=table;startSize=30;container=1;collapsible=1;childLayout=tableLayout;fixedRows=1;rowLines=0;fontStyle=1;align=center;resizeLast=1;" parent="1" vertex="1">
          <mxGeometry x="170" y="-810" width="325" height="180" as="geometry">
            <mxRectangle x="560" y="-310" width="80" height="30" as="alternateBounds" />
          </mxGeometry>
        </mxCell>
        <mxCell id="C-vyLk0tnHw3VtMMgP7b-3" value="" style="shape=partialRectangle;collapsible=0;dropTarget=0;pointerEvents=0;fillColor=none;points=[[0,0.5],[1,0.5]];portConstraint=eastwest;top=0;left=0;right=0;bottom=1;" parent="C-vyLk0tnHw3VtMMgP7b-2" vertex="1">
          <mxGeometry y="30" width="325" height="30" as="geometry" />
        </mxCell>
        <mxCell id="C-vyLk0tnHw3VtMMgP7b-4" value="PK" style="shape=partialRectangle;overflow=hidden;connectable=0;fillColor=none;top=0;left=0;bottom=0;right=0;fontStyle=1;" parent="C-vyLk0tnHw3VtMMgP7b-3" vertex="1">
          <mxGeometry width="30" height="30" as="geometry">
            <mxRectangle width="30" height="30" as="alternateBounds" />
          </mxGeometry>
        </mxCell>
        <mxCell id="C-vyLk0tnHw3VtMMgP7b-5" value="idChambre integer" style="shape=partialRectangle;overflow=hidden;connectable=0;fillColor=none;top=0;left=0;bottom=0;right=0;align=left;spacingLeft=6;fontStyle=5;" parent="C-vyLk0tnHw3VtMMgP7b-3" vertex="1">
          <mxGeometry x="30" width="295" height="30" as="geometry">
            <mxRectangle width="295" height="30" as="alternateBounds" />
          </mxGeometry>
        </mxCell>
        <mxCell id="C-vyLk0tnHw3VtMMgP7b-9" value="" style="shape=partialRectangle;collapsible=0;dropTarget=0;pointerEvents=0;fillColor=none;points=[[0,0.5],[1,0.5]];portConstraint=eastwest;top=0;left=0;right=0;bottom=0;" parent="C-vyLk0tnHw3VtMMgP7b-2" vertex="1">
          <mxGeometry y="60" width="325" height="30" as="geometry" />
        </mxCell>
        <mxCell id="C-vyLk0tnHw3VtMMgP7b-10" value="" style="shape=partialRectangle;overflow=hidden;connectable=0;fillColor=none;top=0;left=0;bottom=0;right=0;" parent="C-vyLk0tnHw3VtMMgP7b-9" vertex="1">
          <mxGeometry width="30" height="30" as="geometry">
            <mxRectangle width="30" height="30" as="alternateBounds" />
          </mxGeometry>
        </mxCell>
        <mxCell id="C-vyLk0tnHw3VtMMgP7b-11" value="type_lit varchar(255)" style="shape=partialRectangle;overflow=hidden;connectable=0;fillColor=none;top=0;left=0;bottom=0;right=0;align=left;spacingLeft=6;" parent="C-vyLk0tnHw3VtMMgP7b-9" vertex="1">
          <mxGeometry x="30" width="295" height="30" as="geometry">
            <mxRectangle width="295" height="30" as="alternateBounds" />
          </mxGeometry>
        </mxCell>
        <mxCell id="dClB2k-6g_kO31vzRgfm-48" style="shape=partialRectangle;collapsible=0;dropTarget=0;pointerEvents=0;fillColor=none;points=[[0,0.5],[1,0.5]];portConstraint=eastwest;top=0;left=0;right=0;bottom=0;" parent="C-vyLk0tnHw3VtMMgP7b-2" vertex="1">
          <mxGeometry y="90" width="325" height="30" as="geometry" />
        </mxCell>
        <mxCell id="dClB2k-6g_kO31vzRgfm-49" style="shape=partialRectangle;overflow=hidden;connectable=0;fillColor=none;top=0;left=0;bottom=0;right=0;" parent="dClB2k-6g_kO31vzRgfm-48" vertex="1">
          <mxGeometry width="30" height="30" as="geometry">
            <mxRectangle width="30" height="30" as="alternateBounds" />
          </mxGeometry>
        </mxCell>
        <mxCell id="dClB2k-6g_kO31vzRgfm-50" value="nom_chambre  varchar(255)" style="shape=partialRectangle;overflow=hidden;connectable=0;fillColor=none;top=0;left=0;bottom=0;right=0;align=left;spacingLeft=6;" parent="dClB2k-6g_kO31vzRgfm-48" vertex="1">
          <mxGeometry x="30" width="295" height="30" as="geometry">
            <mxRectangle width="295" height="30" as="alternateBounds" />
          </mxGeometry>
        </mxCell>
        <mxCell id="dClB2k-6g_kO31vzRgfm-45" style="shape=partialRectangle;collapsible=0;dropTarget=0;pointerEvents=0;fillColor=none;points=[[0,0.5],[1,0.5]];portConstraint=eastwest;top=0;left=0;right=0;bottom=0;" parent="C-vyLk0tnHw3VtMMgP7b-2" vertex="1">
          <mxGeometry y="120" width="325" height="30" as="geometry" />
        </mxCell>
        <mxCell id="dClB2k-6g_kO31vzRgfm-46" style="shape=partialRectangle;overflow=hidden;connectable=0;fillColor=none;top=0;left=0;bottom=0;right=0;" parent="dClB2k-6g_kO31vzRgfm-45" vertex="1">
          <mxGeometry width="30" height="30" as="geometry">
            <mxRectangle width="30" height="30" as="alternateBounds" />
          </mxGeometry>
        </mxCell>
        <mxCell id="dClB2k-6g_kO31vzRgfm-47" value="prix_base float" style="shape=partialRectangle;overflow=hidden;connectable=0;fillColor=none;top=0;left=0;bottom=0;right=0;align=left;spacingLeft=6;" parent="dClB2k-6g_kO31vzRgfm-45" vertex="1">
          <mxGeometry x="30" width="295" height="30" as="geometry">
            <mxRectangle width="295" height="30" as="alternateBounds" />
          </mxGeometry>
        </mxCell>
        <mxCell id="tRXVq13KqLlxP1qB0e1M-16" style="shape=partialRectangle;collapsible=0;dropTarget=0;pointerEvents=0;fillColor=none;points=[[0,0.5],[1,0.5]];portConstraint=eastwest;top=0;left=0;right=0;bottom=1;" parent="C-vyLk0tnHw3VtMMgP7b-2" vertex="1">
          <mxGeometry y="150" width="325" height="30" as="geometry" />
        </mxCell>
        <mxCell id="tRXVq13KqLlxP1qB0e1M-17" value="FK" style="shape=partialRectangle;overflow=hidden;connectable=0;fillColor=none;top=0;left=0;bottom=0;right=0;fontStyle=1;" parent="tRXVq13KqLlxP1qB0e1M-16" vertex="1">
          <mxGeometry width="30" height="30" as="geometry">
            <mxRectangle width="30" height="30" as="alternateBounds" />
          </mxGeometry>
        </mxCell>
        <mxCell id="tRXVq13KqLlxP1qB0e1M-18" value="idCommodite integer" style="shape=partialRectangle;overflow=hidden;connectable=0;fillColor=none;top=0;left=0;bottom=0;right=0;align=left;spacingLeft=6;fontStyle=5;" parent="tRXVq13KqLlxP1qB0e1M-16" vertex="1">
          <mxGeometry x="30" width="295" height="30" as="geometry">
            <mxRectangle width="295" height="30" as="alternateBounds" />
          </mxGeometry>
        </mxCell>
        <mxCell id="C-vyLk0tnHw3VtMMgP7b-13" value="Client" style="shape=table;startSize=30;container=1;collapsible=1;childLayout=tableLayout;fixedRows=1;rowLines=0;fontStyle=1;align=center;resizeLast=1;" parent="1" vertex="1">
          <mxGeometry x="-600" y="-850" width="250" height="160" as="geometry" />
        </mxCell>
        <mxCell id="C-vyLk0tnHw3VtMMgP7b-14" value="" style="shape=partialRectangle;collapsible=0;dropTarget=0;pointerEvents=0;fillColor=none;points=[[0,0.5],[1,0.5]];portConstraint=eastwest;top=0;left=0;right=0;bottom=1;" parent="C-vyLk0tnHw3VtMMgP7b-13" vertex="1">
          <mxGeometry y="30" width="250" height="30" as="geometry" />
        </mxCell>
        <mxCell id="C-vyLk0tnHw3VtMMgP7b-15" value="PK" style="shape=partialRectangle;overflow=hidden;connectable=0;fillColor=none;top=0;left=0;bottom=0;right=0;fontStyle=1;" parent="C-vyLk0tnHw3VtMMgP7b-14" vertex="1">
          <mxGeometry width="30" height="30" as="geometry">
            <mxRectangle width="30" height="30" as="alternateBounds" />
          </mxGeometry>
        </mxCell>
        <mxCell id="C-vyLk0tnHw3VtMMgP7b-16" value="idClient integer" style="shape=partialRectangle;overflow=hidden;connectable=0;fillColor=none;top=0;left=0;bottom=0;right=0;align=left;spacingLeft=6;fontStyle=5;" parent="C-vyLk0tnHw3VtMMgP7b-14" vertex="1">
          <mxGeometry x="30" width="220" height="30" as="geometry">
            <mxRectangle width="220" height="30" as="alternateBounds" />
          </mxGeometry>
        </mxCell>
        <mxCell id="dClB2k-6g_kO31vzRgfm-177" style="shape=partialRectangle;collapsible=0;dropTarget=0;pointerEvents=0;fillColor=none;points=[[0,0.5],[1,0.5]];portConstraint=eastwest;top=0;left=0;right=0;bottom=0;" parent="C-vyLk0tnHw3VtMMgP7b-13" vertex="1">
          <mxGeometry y="60" width="250" height="30" as="geometry" />
        </mxCell>
        <mxCell id="dClB2k-6g_kO31vzRgfm-178" style="shape=partialRectangle;overflow=hidden;connectable=0;fillColor=none;top=0;left=0;bottom=0;right=0;" parent="dClB2k-6g_kO31vzRgfm-177" vertex="1">
          <mxGeometry width="30" height="30" as="geometry">
            <mxRectangle width="30" height="30" as="alternateBounds" />
          </mxGeometry>
        </mxCell>
        <mxCell id="dClB2k-6g_kO31vzRgfm-179" value="prenom  varchar(255)" style="shape=partialRectangle;overflow=hidden;connectable=0;fillColor=none;top=0;left=0;bottom=0;right=0;align=left;spacingLeft=6;" parent="dClB2k-6g_kO31vzRgfm-177" vertex="1">
          <mxGeometry x="30" width="220" height="30" as="geometry">
            <mxRectangle width="220" height="30" as="alternateBounds" />
          </mxGeometry>
        </mxCell>
        <mxCell id="dClB2k-6g_kO31vzRgfm-174" style="shape=partialRectangle;collapsible=0;dropTarget=0;pointerEvents=0;fillColor=none;points=[[0,0.5],[1,0.5]];portConstraint=eastwest;top=0;left=0;right=0;bottom=0;" parent="C-vyLk0tnHw3VtMMgP7b-13" vertex="1">
          <mxGeometry y="90" width="250" height="30" as="geometry" />
        </mxCell>
        <mxCell id="dClB2k-6g_kO31vzRgfm-175" style="shape=partialRectangle;overflow=hidden;connectable=0;fillColor=none;top=0;left=0;bottom=0;right=0;" parent="dClB2k-6g_kO31vzRgfm-174" vertex="1">
          <mxGeometry width="30" height="30" as="geometry">
            <mxRectangle width="30" height="30" as="alternateBounds" />
          </mxGeometry>
        </mxCell>
        <mxCell id="dClB2k-6g_kO31vzRgfm-176" value="nom varchar(255)" style="shape=partialRectangle;overflow=hidden;connectable=0;fillColor=none;top=0;left=0;bottom=0;right=0;align=left;spacingLeft=6;" parent="dClB2k-6g_kO31vzRgfm-174" vertex="1">
          <mxGeometry x="30" width="220" height="30" as="geometry">
            <mxRectangle width="220" height="30" as="alternateBounds" />
          </mxGeometry>
        </mxCell>
        <mxCell id="dClB2k-6g_kO31vzRgfm-180" style="shape=partialRectangle;collapsible=0;dropTarget=0;pointerEvents=0;fillColor=none;points=[[0,0.5],[1,0.5]];portConstraint=eastwest;top=0;left=0;right=0;bottom=0;" parent="C-vyLk0tnHw3VtMMgP7b-13" vertex="1">
          <mxGeometry y="120" width="250" height="30" as="geometry" />
        </mxCell>
        <mxCell id="dClB2k-6g_kO31vzRgfm-181" style="shape=partialRectangle;overflow=hidden;connectable=0;fillColor=none;top=0;left=0;bottom=0;right=0;" parent="dClB2k-6g_kO31vzRgfm-180" vertex="1">
          <mxGeometry width="30" height="30" as="geometry">
            <mxRectangle width="30" height="30" as="alternateBounds" />
          </mxGeometry>
        </mxCell>
        <mxCell id="dClB2k-6g_kO31vzRgfm-182" value="age integer" style="shape=partialRectangle;overflow=hidden;connectable=0;fillColor=none;top=0;left=0;bottom=0;right=0;align=left;spacingLeft=6;" parent="dClB2k-6g_kO31vzRgfm-180" vertex="1">
          <mxGeometry x="30" width="220" height="30" as="geometry">
            <mxRectangle width="220" height="30" as="alternateBounds" />
          </mxGeometry>
        </mxCell>
        <mxCell id="dClB2k-6g_kO31vzRgfm-7" value="Commodité" style="shape=table;startSize=30;container=1;collapsible=1;childLayout=tableLayout;fixedRows=1;rowLines=0;fontStyle=1;align=center;resizeLast=1;" parent="1" vertex="1">
          <mxGeometry x="-210" y="-520" width="250" height="130" as="geometry" />
        </mxCell>
        <mxCell id="dClB2k-6g_kO31vzRgfm-8" value="" style="shape=partialRectangle;collapsible=0;dropTarget=0;pointerEvents=0;fillColor=none;points=[[0,0.5],[1,0.5]];portConstraint=eastwest;top=0;left=0;right=0;bottom=1;" parent="dClB2k-6g_kO31vzRgfm-7" vertex="1">
          <mxGeometry y="30" width="250" height="30" as="geometry" />
        </mxCell>
        <mxCell id="dClB2k-6g_kO31vzRgfm-9" value="PK" style="shape=partialRectangle;overflow=hidden;connectable=0;fillColor=none;top=0;left=0;bottom=0;right=0;fontStyle=1;" parent="dClB2k-6g_kO31vzRgfm-8" vertex="1">
          <mxGeometry width="30" height="30" as="geometry">
            <mxRectangle width="30" height="30" as="alternateBounds" />
          </mxGeometry>
        </mxCell>
        <mxCell id="dClB2k-6g_kO31vzRgfm-10" value="idCommodité integer" style="shape=partialRectangle;overflow=hidden;connectable=0;fillColor=none;top=0;left=0;bottom=0;right=0;align=left;spacingLeft=6;fontStyle=5;" parent="dClB2k-6g_kO31vzRgfm-8" vertex="1">
          <mxGeometry x="30" width="220" height="30" as="geometry">
            <mxRectangle width="220" height="30" as="alternateBounds" />
          </mxGeometry>
        </mxCell>
        <mxCell id="dClB2k-6g_kO31vzRgfm-11" value="" style="shape=partialRectangle;collapsible=0;dropTarget=0;pointerEvents=0;fillColor=none;points=[[0,0.5],[1,0.5]];portConstraint=eastwest;top=0;left=0;right=0;bottom=0;" parent="dClB2k-6g_kO31vzRgfm-7" vertex="1">
          <mxGeometry y="60" width="250" height="30" as="geometry" />
        </mxCell>
        <mxCell id="dClB2k-6g_kO31vzRgfm-12" value="" style="shape=partialRectangle;overflow=hidden;connectable=0;fillColor=none;top=0;left=0;bottom=0;right=0;" parent="dClB2k-6g_kO31vzRgfm-11" vertex="1">
          <mxGeometry width="30" height="30" as="geometry">
            <mxRectangle width="30" height="30" as="alternateBounds" />
          </mxGeometry>
        </mxCell>
        <mxCell id="dClB2k-6g_kO31vzRgfm-13" value="description varchar(255)" style="shape=partialRectangle;overflow=hidden;connectable=0;fillColor=none;top=0;left=0;bottom=0;right=0;align=left;spacingLeft=6;" parent="dClB2k-6g_kO31vzRgfm-11" vertex="1">
          <mxGeometry x="30" width="220" height="30" as="geometry">
            <mxRectangle width="220" height="30" as="alternateBounds" />
          </mxGeometry>
        </mxCell>
        <mxCell id="dClB2k-6g_kO31vzRgfm-14" value="" style="shape=partialRectangle;collapsible=0;dropTarget=0;pointerEvents=0;fillColor=none;points=[[0,0.5],[1,0.5]];portConstraint=eastwest;top=0;left=0;right=0;bottom=0;" parent="dClB2k-6g_kO31vzRgfm-7" vertex="1">
          <mxGeometry y="90" width="250" height="30" as="geometry" />
        </mxCell>
        <mxCell id="dClB2k-6g_kO31vzRgfm-15" value="" style="shape=partialRectangle;overflow=hidden;connectable=0;fillColor=none;top=0;left=0;bottom=0;right=0;" parent="dClB2k-6g_kO31vzRgfm-14" vertex="1">
          <mxGeometry width="30" height="30" as="geometry">
            <mxRectangle width="30" height="30" as="alternateBounds" />
          </mxGeometry>
        </mxCell>
        <mxCell id="dClB2k-6g_kO31vzRgfm-16" value="surplus_prix integer" style="shape=partialRectangle;overflow=hidden;connectable=0;fillColor=none;top=0;left=0;bottom=0;right=0;align=left;spacingLeft=6;" parent="dClB2k-6g_kO31vzRgfm-14" vertex="1">
          <mxGeometry x="30" width="220" height="30" as="geometry">
            <mxRectangle width="220" height="30" as="alternateBounds" />
          </mxGeometry>
        </mxCell>
        <mxCell id="dClB2k-6g_kO31vzRgfm-17" value="Réservation" style="shape=table;startSize=30;container=1;collapsible=1;childLayout=tableLayout;fixedRows=1;rowLines=0;fontStyle=1;align=center;resizeLast=1;" parent="1" vertex="1">
          <mxGeometry x="-220" y="-960" width="280" height="160" as="geometry" />
        </mxCell>
        <mxCell id="dClB2k-6g_kO31vzRgfm-21" value="" style="shape=partialRectangle;collapsible=0;dropTarget=0;pointerEvents=0;fillColor=none;points=[[0,0.5],[1,0.5]];portConstraint=eastwest;top=0;left=0;right=0;bottom=0;" parent="dClB2k-6g_kO31vzRgfm-17" vertex="1">
          <mxGeometry y="30" width="280" height="30" as="geometry" />
        </mxCell>
        <mxCell id="dClB2k-6g_kO31vzRgfm-22" value="PK,FK1" style="shape=partialRectangle;overflow=hidden;connectable=0;fillColor=none;top=0;left=0;bottom=0;right=0;fontStyle=1" parent="dClB2k-6g_kO31vzRgfm-21" vertex="1">
          <mxGeometry width="50" height="30" as="geometry">
            <mxRectangle width="50" height="30" as="alternateBounds" />
          </mxGeometry>
        </mxCell>
        <mxCell id="dClB2k-6g_kO31vzRgfm-23" value="idChambre integer" style="shape=partialRectangle;overflow=hidden;connectable=0;fillColor=none;top=0;left=0;bottom=0;right=0;align=left;spacingLeft=6;fontStyle=1" parent="dClB2k-6g_kO31vzRgfm-21" vertex="1">
          <mxGeometry x="50" width="230" height="30" as="geometry">
            <mxRectangle width="230" height="30" as="alternateBounds" />
          </mxGeometry>
        </mxCell>
        <mxCell id="j7xbm_qRwy3en3J_k5t--4" style="shape=partialRectangle;collapsible=0;dropTarget=0;pointerEvents=0;fillColor=none;points=[[0,0.5],[1,0.5]];portConstraint=eastwest;top=0;left=0;right=0;bottom=0;" parent="dClB2k-6g_kO31vzRgfm-17" vertex="1">
          <mxGeometry y="60" width="280" height="30" as="geometry" />
        </mxCell>
        <mxCell id="j7xbm_qRwy3en3J_k5t--5" value="PK,FK2" style="shape=partialRectangle;overflow=hidden;connectable=0;fillColor=none;top=0;left=0;bottom=0;right=0;fontStyle=1" parent="j7xbm_qRwy3en3J_k5t--4" vertex="1">
          <mxGeometry width="50" height="30" as="geometry">
            <mxRectangle width="50" height="30" as="alternateBounds" />
          </mxGeometry>
        </mxCell>
        <mxCell id="j7xbm_qRwy3en3J_k5t--6" value="idClient integer" style="shape=partialRectangle;overflow=hidden;connectable=0;fillColor=none;top=0;left=0;bottom=0;right=0;align=left;spacingLeft=6;fontStyle=1" parent="j7xbm_qRwy3en3J_k5t--4" vertex="1">
          <mxGeometry x="50" width="230" height="30" as="geometry">
            <mxRectangle width="230" height="30" as="alternateBounds" />
          </mxGeometry>
        </mxCell>
        <mxCell id="dClB2k-6g_kO31vzRgfm-24" value="" style="shape=partialRectangle;collapsible=0;dropTarget=0;pointerEvents=0;fillColor=none;points=[[0,0.5],[1,0.5]];portConstraint=eastwest;top=0;left=0;right=0;bottom=0;" parent="dClB2k-6g_kO31vzRgfm-17" vertex="1">
          <mxGeometry y="90" width="280" height="30" as="geometry" />
        </mxCell>
        <mxCell id="dClB2k-6g_kO31vzRgfm-25" value="" style="shape=partialRectangle;overflow=hidden;connectable=0;fillColor=none;top=0;left=0;bottom=0;right=0;" parent="dClB2k-6g_kO31vzRgfm-24" vertex="1">
          <mxGeometry width="50" height="30" as="geometry">
            <mxRectangle width="50" height="30" as="alternateBounds" />
          </mxGeometry>
        </mxCell>
        <mxCell id="dClB2k-6g_kO31vzRgfm-26" value="date_debut Date" style="shape=partialRectangle;overflow=hidden;connectable=0;fillColor=none;top=0;left=0;bottom=0;right=0;align=left;spacingLeft=6;" parent="dClB2k-6g_kO31vzRgfm-24" vertex="1">
          <mxGeometry x="50" width="230" height="30" as="geometry">
            <mxRectangle width="230" height="30" as="alternateBounds" />
          </mxGeometry>
        </mxCell>
        <mxCell id="dClB2k-6g_kO31vzRgfm-120" style="shape=partialRectangle;collapsible=0;dropTarget=0;pointerEvents=0;fillColor=none;points=[[0,0.5],[1,0.5]];portConstraint=eastwest;top=0;left=0;right=0;bottom=0;" parent="dClB2k-6g_kO31vzRgfm-17" vertex="1">
          <mxGeometry y="120" width="280" height="30" as="geometry" />
        </mxCell>
        <mxCell id="dClB2k-6g_kO31vzRgfm-121" style="shape=partialRectangle;overflow=hidden;connectable=0;fillColor=none;top=0;left=0;bottom=0;right=0;" parent="dClB2k-6g_kO31vzRgfm-120" vertex="1">
          <mxGeometry width="50" height="30" as="geometry">
            <mxRectangle width="50" height="30" as="alternateBounds" />
          </mxGeometry>
        </mxCell>
        <mxCell id="dClB2k-6g_kO31vzRgfm-122" value="date_fin Date" style="shape=partialRectangle;overflow=hidden;connectable=0;fillColor=none;top=0;left=0;bottom=0;right=0;align=left;spacingLeft=6;" parent="dClB2k-6g_kO31vzRgfm-120" vertex="1">
          <mxGeometry x="50" width="230" height="30" as="geometry">
            <mxRectangle width="230" height="30" as="alternateBounds" />
          </mxGeometry>
        </mxCell>
        <mxCell id="dClB2k-6g_kO31vzRgfm-139" value="" style="endArrow=none;html=1;rounded=0;edgeStyle=orthogonalEdgeStyle;entryX=1;entryY=0.5;entryDx=0;entryDy=0;exitX=0;exitY=0.5;exitDx=0;exitDy=0;" parent="1" source="j7xbm_qRwy3en3J_k5t--4" target="C-vyLk0tnHw3VtMMgP7b-14" edge="1">
          <mxGeometry relative="1" as="geometry">
            <mxPoint x="1890" y="-950" as="sourcePoint" />
            <mxPoint x="280" y="-1290" as="targetPoint" />
          </mxGeometry>
        </mxCell>
        <mxCell id="dClB2k-6g_kO31vzRgfm-148" value="" style="endArrow=none;html=1;rounded=0;edgeStyle=orthogonalEdgeStyle;entryX=1;entryY=0.5;entryDx=0;entryDy=0;exitX=0;exitY=0.5;exitDx=0;exitDy=0;" parent="1" source="tRXVq13KqLlxP1qB0e1M-16" target="dClB2k-6g_kO31vzRgfm-8" edge="1">
          <mxGeometry relative="1" as="geometry">
            <mxPoint x="1040" y="-320" as="sourcePoint" />
            <mxPoint x="680" y="330" as="targetPoint" />
          </mxGeometry>
        </mxCell>
        <mxCell id="ZSMCrXNZIzDHLqJs1hze-1" value="Relationnel" style="whiteSpace=wrap;html=1;" parent="1" vertex="1">
          <mxGeometry x="-440" y="-1610" width="230" height="60" as="geometry" />
        </mxCell>
        <mxCell id="tRXVq13KqLlxP1qB0e1M-34" value="1" style="text;html=1;align=center;verticalAlign=middle;resizable=0;points=[];autosize=1;strokeColor=none;fillColor=none;" parent="1" vertex="1">
          <mxGeometry x="660" y="-470" width="20" height="20" as="geometry" />
        </mxCell>
        <mxCell id="Vtj193junujbWGhgVbKG-1" value="" style="endArrow=none;html=1;rounded=0;edgeStyle=orthogonalEdgeStyle;entryX=0;entryY=0.5;entryDx=0;entryDy=0;exitX=1;exitY=0.5;exitDx=0;exitDy=0;" edge="1" parent="1" source="dClB2k-6g_kO31vzRgfm-21" target="C-vyLk0tnHw3VtMMgP7b-3">
          <mxGeometry relative="1" as="geometry">
            <mxPoint x="460" y="-660" as="sourcePoint" />
            <mxPoint x="90" y="-670" as="targetPoint" />
          </mxGeometry>
        </mxCell>
      </root>
    </mxGraphModel>
  </diagram>
  <diagram id="7i2WBU7LSIbKo75xD5hc" name="diagramme entité">
    <mxGraphModel dx="1422" dy="3075" grid="1" gridSize="10" guides="1" tooltips="1" connect="1" arrows="1" fold="1" page="1" pageScale="1" pageWidth="827" pageHeight="1169" math="0" shadow="0">
      <root>
        <mxCell id="58-anCdXrAWBHiYPlrrt-0" />
        <mxCell id="58-anCdXrAWBHiYPlrrt-1" parent="58-anCdXrAWBHiYPlrrt-0" />
        <mxCell id="Kcp9mlnTOB3vgcsuf8J1-0" value="GestionSystème" style="rounded=0;whiteSpace=wrap;html=1;" parent="58-anCdXrAWBHiYPlrrt-1" vertex="1">
          <mxGeometry x="1157" y="-1530" width="120" height="60" as="geometry" />
        </mxCell>
        <mxCell id="Kcp9mlnTOB3vgcsuf8J1-1" value="Commodité" style="rounded=0;whiteSpace=wrap;html=1;" parent="58-anCdXrAWBHiYPlrrt-1" vertex="1">
          <mxGeometry x="670" y="-1640" width="120" height="60" as="geometry" />
        </mxCell>
        <mxCell id="Kcp9mlnTOB3vgcsuf8J1-3" value="idCommodité" style="ellipse;whiteSpace=wrap;html=1;align=center;fontStyle=4;" parent="58-anCdXrAWBHiYPlrrt-1" vertex="1">
          <mxGeometry x="610" y="-1760" width="100" height="40" as="geometry" />
        </mxCell>
        <mxCell id="Kcp9mlnTOB3vgcsuf8J1-5" value="" style="endArrow=none;html=1;rounded=0;edgeStyle=orthogonalEdgeStyle;entryX=0.5;entryY=1;entryDx=0;entryDy=0;exitX=0;exitY=0.5;exitDx=0;exitDy=0;" parent="58-anCdXrAWBHiYPlrrt-1" source="Kcp9mlnTOB3vgcsuf8J1-0" target="HyXrC_I54JldlYl7seNr-22" edge="1">
          <mxGeometry relative="1" as="geometry">
            <mxPoint x="1410" y="-1530" as="sourcePoint" />
            <mxPoint x="979.9999999999995" y="-1580" as="targetPoint" />
          </mxGeometry>
        </mxCell>
        <mxCell id="Kcp9mlnTOB3vgcsuf8J1-7" value="" style="endArrow=none;html=1;rounded=0;edgeStyle=orthogonalEdgeStyle;entryX=1;entryY=0.5;entryDx=0;entryDy=0;exitX=0;exitY=0.5;exitDx=0;exitDy=0;" parent="58-anCdXrAWBHiYPlrrt-1" source="HyXrC_I54JldlYl7seNr-22" target="Kcp9mlnTOB3vgcsuf8J1-1" edge="1">
          <mxGeometry relative="1" as="geometry">
            <mxPoint x="919.9999999999995" y="-1620" as="sourcePoint" />
            <mxPoint x="1570" y="-1530" as="targetPoint" />
          </mxGeometry>
        </mxCell>
        <mxCell id="Kcp9mlnTOB3vgcsuf8J1-8" value="" style="endArrow=none;html=1;rounded=0;edgeStyle=orthogonalEdgeStyle;entryX=0.5;entryY=1;entryDx=0;entryDy=0;" parent="58-anCdXrAWBHiYPlrrt-1" source="Kcp9mlnTOB3vgcsuf8J1-1" target="Kcp9mlnTOB3vgcsuf8J1-3" edge="1">
          <mxGeometry relative="1" as="geometry">
            <mxPoint x="1410" y="-1530" as="sourcePoint" />
            <mxPoint x="1570" y="-1530" as="targetPoint" />
          </mxGeometry>
        </mxCell>
        <mxCell id="Kcp9mlnTOB3vgcsuf8J1-11" value="Client" style="whiteSpace=wrap;html=1;align=center;" parent="58-anCdXrAWBHiYPlrrt-1" vertex="1">
          <mxGeometry x="1720" y="-1390" width="100" height="40" as="geometry" />
        </mxCell>
        <mxCell id="Kcp9mlnTOB3vgcsuf8J1-13" value="Chambre" style="whiteSpace=wrap;html=1;align=center;" parent="58-anCdXrAWBHiYPlrrt-1" vertex="1">
          <mxGeometry x="940" y="-1290" width="100" height="40" as="geometry" />
        </mxCell>
        <mxCell id="Kcp9mlnTOB3vgcsuf8J1-15" value="" style="endArrow=none;html=1;rounded=0;edgeStyle=orthogonalEdgeStyle;entryX=0.58;entryY=1.05;entryDx=0;entryDy=0;exitX=1;exitY=0.5;exitDx=0;exitDy=0;entryPerimeter=0;" parent="58-anCdXrAWBHiYPlrrt-1" source="HyXrC_I54JldlYl7seNr-21" target="Kcp9mlnTOB3vgcsuf8J1-11" edge="1">
          <mxGeometry relative="1" as="geometry">
            <mxPoint x="1453.48" y="-1223.3599999999997" as="sourcePoint" />
            <mxPoint x="1820" y="-1290.5" as="targetPoint" />
          </mxGeometry>
        </mxCell>
        <mxCell id="Kcp9mlnTOB3vgcsuf8J1-17" value="1" style="text;html=1;align=center;verticalAlign=middle;resizable=0;points=[];autosize=1;strokeColor=none;fillColor=none;" parent="58-anCdXrAWBHiYPlrrt-1" vertex="1">
          <mxGeometry x="1750" y="-1350" width="20" height="20" as="geometry" />
        </mxCell>
        <mxCell id="Kcp9mlnTOB3vgcsuf8J1-18" value="n" style="text;html=1;align=center;verticalAlign=middle;resizable=0;points=[];autosize=1;strokeColor=none;fillColor=none;" parent="58-anCdXrAWBHiYPlrrt-1" vertex="1">
          <mxGeometry x="1470" y="-1229" width="20" height="20" as="geometry" />
        </mxCell>
        <mxCell id="Kcp9mlnTOB3vgcsuf8J1-22" value="" style="endArrow=none;html=1;rounded=0;edgeStyle=orthogonalEdgeStyle;exitX=1;exitY=0.75;exitDx=0;exitDy=0;entryX=0;entryY=0.5;entryDx=0;entryDy=0;" parent="58-anCdXrAWBHiYPlrrt-1" source="Kcp9mlnTOB3vgcsuf8J1-13" target="HyXrC_I54JldlYl7seNr-21" edge="1">
          <mxGeometry relative="1" as="geometry">
            <mxPoint x="1010" y="-1191" as="sourcePoint" />
            <mxPoint x="1329.9999999999995" y="-1230" as="targetPoint" />
          </mxGeometry>
        </mxCell>
        <mxCell id="Kcp9mlnTOB3vgcsuf8J1-24" value="1" style="text;html=1;align=center;verticalAlign=middle;resizable=0;points=[];autosize=1;strokeColor=none;fillColor=none;" parent="58-anCdXrAWBHiYPlrrt-1" vertex="1">
          <mxGeometry x="1060" y="-1280" width="20" height="20" as="geometry" />
        </mxCell>
        <mxCell id="Kcp9mlnTOB3vgcsuf8J1-25" value="n" style="text;html=1;align=center;verticalAlign=middle;resizable=0;points=[];autosize=1;strokeColor=none;fillColor=none;" parent="58-anCdXrAWBHiYPlrrt-1" vertex="1">
          <mxGeometry x="1300" y="-1229" width="20" height="20" as="geometry" />
        </mxCell>
        <mxCell id="Kcp9mlnTOB3vgcsuf8J1-28" value="idClient" style="ellipse;whiteSpace=wrap;html=1;align=center;fontStyle=4;" parent="58-anCdXrAWBHiYPlrrt-1" vertex="1">
          <mxGeometry x="1760" y="-1490" width="100" height="40" as="geometry" />
        </mxCell>
        <mxCell id="Kcp9mlnTOB3vgcsuf8J1-30" value="idChambre" style="ellipse;whiteSpace=wrap;html=1;align=center;fontStyle=4;" parent="58-anCdXrAWBHiYPlrrt-1" vertex="1">
          <mxGeometry x="890" y="-1150" width="100" height="40" as="geometry" />
        </mxCell>
        <mxCell id="Kcp9mlnTOB3vgcsuf8J1-31" value="" style="endArrow=none;html=1;rounded=0;edgeStyle=orthogonalEdgeStyle;exitX=0.35;exitY=1.017;exitDx=0;exitDy=0;exitPerimeter=0;entryX=0.5;entryY=0;entryDx=0;entryDy=0;" parent="58-anCdXrAWBHiYPlrrt-1" source="Kcp9mlnTOB3vgcsuf8J1-0" target="HyXrC_I54JldlYl7seNr-20" edge="1">
          <mxGeometry relative="1" as="geometry">
            <mxPoint x="1380" y="-1390" as="sourcePoint" />
            <mxPoint x="1019.9999999999995" y="-1410" as="targetPoint" />
          </mxGeometry>
        </mxCell>
        <mxCell id="Kcp9mlnTOB3vgcsuf8J1-33" value="" style="endArrow=none;html=1;rounded=0;edgeStyle=orthogonalEdgeStyle;entryX=0.43;entryY=0.975;entryDx=0;entryDy=0;entryPerimeter=0;" parent="58-anCdXrAWBHiYPlrrt-1" source="Kcp9mlnTOB3vgcsuf8J1-30" target="Kcp9mlnTOB3vgcsuf8J1-13" edge="1">
          <mxGeometry relative="1" as="geometry">
            <mxPoint x="1240" y="-1360" as="sourcePoint" />
            <mxPoint x="1400" y="-1360" as="targetPoint" />
            <Array as="points">
              <mxPoint x="940" y="-1245" />
              <mxPoint x="983" y="-1245" />
            </Array>
          </mxGeometry>
        </mxCell>
        <mxCell id="Kcp9mlnTOB3vgcsuf8J1-34" value="" style="endArrow=none;html=1;rounded=0;edgeStyle=orthogonalEdgeStyle;entryX=0.64;entryY=1.025;entryDx=0;entryDy=0;entryPerimeter=0;exitX=0.5;exitY=0;exitDx=0;exitDy=0;" parent="58-anCdXrAWBHiYPlrrt-1" source="Kcp9mlnTOB3vgcsuf8J1-11" target="Kcp9mlnTOB3vgcsuf8J1-28" edge="1">
          <mxGeometry relative="1" as="geometry">
            <mxPoint x="1700" y="-1350.5" as="sourcePoint" />
            <mxPoint x="1860" y="-1350.5" as="targetPoint" />
          </mxGeometry>
        </mxCell>
        <mxCell id="Kcp9mlnTOB3vgcsuf8J1-36" value="" style="endArrow=none;html=1;rounded=0;edgeStyle=orthogonalEdgeStyle;exitX=0.5;exitY=1;exitDx=0;exitDy=0;" parent="58-anCdXrAWBHiYPlrrt-1" source="Kcp9mlnTOB3vgcsuf8J1-1" target="HyXrC_I54JldlYl7seNr-34" edge="1">
          <mxGeometry relative="1" as="geometry">
            <mxPoint x="690" y="-1460" as="sourcePoint" />
            <mxPoint x="710" y="-1400" as="targetPoint" />
          </mxGeometry>
        </mxCell>
        <mxCell id="Kcp9mlnTOB3vgcsuf8J1-37" value="" style="endArrow=none;html=1;rounded=0;edgeStyle=orthogonalEdgeStyle;exitX=0.5;exitY=1;exitDx=0;exitDy=0;entryX=0.5;entryY=0;entryDx=0;entryDy=0;" parent="58-anCdXrAWBHiYPlrrt-1" source="HyXrC_I54JldlYl7seNr-20" target="Kcp9mlnTOB3vgcsuf8J1-13" edge="1">
          <mxGeometry relative="1" as="geometry">
            <mxPoint x="1013" y="-1357" as="sourcePoint" />
            <mxPoint x="1540" y="-1390" as="targetPoint" />
          </mxGeometry>
        </mxCell>
        <mxCell id="Kcp9mlnTOB3vgcsuf8J1-39" value="(1,1)" style="text;html=1;align=center;verticalAlign=middle;resizable=0;points=[];autosize=1;strokeColor=none;fillColor=none;" parent="58-anCdXrAWBHiYPlrrt-1" vertex="1">
          <mxGeometry x="1100" y="-1440" width="40" height="20" as="geometry" />
        </mxCell>
        <mxCell id="Kcp9mlnTOB3vgcsuf8J1-41" value="(0,1)" style="text;html=1;align=center;verticalAlign=middle;resizable=0;points=[];autosize=1;strokeColor=none;fillColor=none;" parent="58-anCdXrAWBHiYPlrrt-1" vertex="1">
          <mxGeometry x="1000" y="-1330" width="40" height="20" as="geometry" />
        </mxCell>
        <mxCell id="Kcp9mlnTOB3vgcsuf8J1-45" value="" style="endArrow=none;html=1;rounded=0;edgeStyle=orthogonalEdgeStyle;exitX=1;exitY=1;exitDx=0;exitDy=0;entryX=0;entryY=0.5;entryDx=0;entryDy=0;" parent="58-anCdXrAWBHiYPlrrt-1" source="HyXrC_I54JldlYl7seNr-34" target="Kcp9mlnTOB3vgcsuf8J1-13" edge="1">
          <mxGeometry relative="1" as="geometry">
            <mxPoint x="710" y="-1340" as="sourcePoint" />
            <mxPoint x="720" y="-1390" as="targetPoint" />
          </mxGeometry>
        </mxCell>
        <mxCell id="Kcp9mlnTOB3vgcsuf8J1-46" value="n" style="text;html=1;align=center;verticalAlign=middle;resizable=0;points=[];autosize=1;strokeColor=none;fillColor=none;" parent="58-anCdXrAWBHiYPlrrt-1" vertex="1">
          <mxGeometry x="700" y="-1580" width="20" height="20" as="geometry" />
        </mxCell>
        <mxCell id="Kcp9mlnTOB3vgcsuf8J1-47" value="1" style="text;html=1;align=center;verticalAlign=middle;resizable=0;points=[];autosize=1;strokeColor=none;fillColor=none;" parent="58-anCdXrAWBHiYPlrrt-1" vertex="1">
          <mxGeometry x="690" y="-1430" width="20" height="20" as="geometry" />
        </mxCell>
        <mxCell id="Kcp9mlnTOB3vgcsuf8J1-48" value="1" style="text;html=1;align=center;verticalAlign=middle;resizable=0;points=[];autosize=1;strokeColor=none;fillColor=none;" parent="58-anCdXrAWBHiYPlrrt-1" vertex="1">
          <mxGeometry x="910" y="-1290" width="20" height="20" as="geometry" />
        </mxCell>
        <mxCell id="Kcp9mlnTOB3vgcsuf8J1-49" value="n" style="text;html=1;align=center;verticalAlign=middle;resizable=0;points=[];autosize=1;strokeColor=none;fillColor=none;" parent="58-anCdXrAWBHiYPlrrt-1" vertex="1">
          <mxGeometry x="710" y="-1340" width="20" height="20" as="geometry" />
        </mxCell>
        <mxCell id="Kcp9mlnTOB3vgcsuf8J1-51" value="" style="endArrow=none;html=1;rounded=0;edgeStyle=orthogonalEdgeStyle;entryX=1;entryY=0.5;entryDx=0;entryDy=0;exitX=0;exitY=0.25;exitDx=0;exitDy=0;" parent="58-anCdXrAWBHiYPlrrt-1" source="Kcp9mlnTOB3vgcsuf8J1-11" target="HyXrC_I54JldlYl7seNr-27" edge="1">
          <mxGeometry relative="1" as="geometry">
            <mxPoint x="1240" y="-1430" as="sourcePoint" />
            <mxPoint x="1572.04" y="-1482.98" as="targetPoint" />
            <Array as="points">
              <mxPoint x="1660" y="-1380" />
              <mxPoint x="1660" y="-1483" />
              <mxPoint x="1570" y="-1483" />
            </Array>
          </mxGeometry>
        </mxCell>
        <mxCell id="Kcp9mlnTOB3vgcsuf8J1-52" value="" style="endArrow=none;html=1;rounded=0;edgeStyle=orthogonalEdgeStyle;entryX=0;entryY=0.5;entryDx=0;entryDy=0;exitX=1;exitY=0.5;exitDx=0;exitDy=0;" parent="58-anCdXrAWBHiYPlrrt-1" source="Kcp9mlnTOB3vgcsuf8J1-0" edge="1">
          <mxGeometry relative="1" as="geometry">
            <mxPoint x="1170" y="-1490" as="sourcePoint" />
            <mxPoint x="1450" y="-1490" as="targetPoint" />
            <Array as="points">
              <mxPoint x="1277" y="-1490" />
            </Array>
          </mxGeometry>
        </mxCell>
        <mxCell id="Kcp9mlnTOB3vgcsuf8J1-55" value="1" style="text;html=1;align=center;verticalAlign=middle;resizable=0;points=[];autosize=1;strokeColor=none;fillColor=none;" parent="58-anCdXrAWBHiYPlrrt-1" vertex="1">
          <mxGeometry x="1690" y="-1410" width="20" height="20" as="geometry" />
        </mxCell>
        <mxCell id="Kcp9mlnTOB3vgcsuf8J1-56" value="1" style="text;html=1;align=center;verticalAlign=middle;resizable=0;points=[];autosize=1;strokeColor=none;fillColor=none;" parent="58-anCdXrAWBHiYPlrrt-1" vertex="1">
          <mxGeometry x="1590" y="-1500" width="20" height="20" as="geometry" />
        </mxCell>
        <mxCell id="HyXrC_I54JldlYl7seNr-0" value="description" style="ellipse;whiteSpace=wrap;html=1;align=center;" vertex="1" parent="58-anCdXrAWBHiYPlrrt-1">
          <mxGeometry x="520" y="-1730" width="100" height="40" as="geometry" />
        </mxCell>
        <mxCell id="HyXrC_I54JldlYl7seNr-2" value="surplus_prix" style="ellipse;whiteSpace=wrap;html=1;align=center;" vertex="1" parent="58-anCdXrAWBHiYPlrrt-1">
          <mxGeometry x="490" y="-1670" width="100" height="40" as="geometry" />
        </mxCell>
        <mxCell id="HyXrC_I54JldlYl7seNr-3" value="type_lit" style="ellipse;whiteSpace=wrap;html=1;align=center;" vertex="1" parent="58-anCdXrAWBHiYPlrrt-1">
          <mxGeometry x="990" y="-1160" width="100" height="40" as="geometry" />
        </mxCell>
        <mxCell id="HyXrC_I54JldlYl7seNr-4" value="nom_chambre" style="ellipse;whiteSpace=wrap;html=1;align=center;" vertex="1" parent="58-anCdXrAWBHiYPlrrt-1">
          <mxGeometry x="1090" y="-1190" width="100" height="40" as="geometry" />
        </mxCell>
        <mxCell id="HyXrC_I54JldlYl7seNr-5" value="prix_base" style="ellipse;whiteSpace=wrap;html=1;align=center;" vertex="1" parent="58-anCdXrAWBHiYPlrrt-1">
          <mxGeometry x="800" y="-1209" width="100" height="40" as="geometry" />
        </mxCell>
        <mxCell id="HyXrC_I54JldlYl7seNr-7" value="prenom" style="ellipse;whiteSpace=wrap;html=1;align=center;" vertex="1" parent="58-anCdXrAWBHiYPlrrt-1">
          <mxGeometry x="1950" y="-1370" width="100" height="40" as="geometry" />
        </mxCell>
        <mxCell id="HyXrC_I54JldlYl7seNr-8" value="nom" style="ellipse;whiteSpace=wrap;html=1;align=center;" vertex="1" parent="58-anCdXrAWBHiYPlrrt-1">
          <mxGeometry x="1880" y="-1300" width="100" height="40" as="geometry" />
        </mxCell>
        <mxCell id="HyXrC_I54JldlYl7seNr-9" value="age" style="ellipse;whiteSpace=wrap;html=1;align=center;" vertex="1" parent="58-anCdXrAWBHiYPlrrt-1">
          <mxGeometry x="1880" y="-1430" width="100" height="40" as="geometry" />
        </mxCell>
        <mxCell id="HyXrC_I54JldlYl7seNr-11" value="" style="endArrow=none;html=1;rounded=0;exitX=0;exitY=1;exitDx=0;exitDy=0;" edge="1" parent="58-anCdXrAWBHiYPlrrt-1" source="Kcp9mlnTOB3vgcsuf8J1-1" target="HyXrC_I54JldlYl7seNr-2">
          <mxGeometry relative="1" as="geometry">
            <mxPoint x="930" y="-1530" as="sourcePoint" />
            <mxPoint x="1090" y="-1530" as="targetPoint" />
          </mxGeometry>
        </mxCell>
        <mxCell id="HyXrC_I54JldlYl7seNr-12" value="" style="endArrow=none;html=1;rounded=0;exitX=0;exitY=0;exitDx=0;exitDy=0;entryX=0.72;entryY=0.95;entryDx=0;entryDy=0;entryPerimeter=0;" edge="1" parent="58-anCdXrAWBHiYPlrrt-1" source="Kcp9mlnTOB3vgcsuf8J1-1" target="HyXrC_I54JldlYl7seNr-0">
          <mxGeometry relative="1" as="geometry">
            <mxPoint x="680" y="-1570" as="sourcePoint" />
            <mxPoint x="577.4341649025264" y="-1556.324555320337" as="targetPoint" />
          </mxGeometry>
        </mxCell>
        <mxCell id="HyXrC_I54JldlYl7seNr-13" value="" style="endArrow=none;html=1;rounded=0;exitX=0;exitY=1;exitDx=0;exitDy=0;entryX=1;entryY=1;entryDx=0;entryDy=0;" edge="1" parent="58-anCdXrAWBHiYPlrrt-1" source="HyXrC_I54JldlYl7seNr-8" target="Kcp9mlnTOB3vgcsuf8J1-11">
          <mxGeometry relative="1" as="geometry">
            <mxPoint x="1712.5700000000002" y="-1580" as="sourcePoint" />
            <mxPoint x="1610.0041649025266" y="-1566.324555320337" as="targetPoint" />
          </mxGeometry>
        </mxCell>
        <mxCell id="HyXrC_I54JldlYl7seNr-14" value="" style="endArrow=none;html=1;rounded=0;exitX=0;exitY=0.5;exitDx=0;exitDy=0;entryX=1;entryY=0.75;entryDx=0;entryDy=0;" edge="1" parent="58-anCdXrAWBHiYPlrrt-1" source="HyXrC_I54JldlYl7seNr-7" target="Kcp9mlnTOB3vgcsuf8J1-11">
          <mxGeometry relative="1" as="geometry">
            <mxPoint x="1582.5700000000002" y="-1616.84" as="sourcePoint" />
            <mxPoint x="1480.0041649025266" y="-1603.1645553203368" as="targetPoint" />
          </mxGeometry>
        </mxCell>
        <mxCell id="HyXrC_I54JldlYl7seNr-15" value="" style="endArrow=none;html=1;rounded=0;exitX=0.67;exitY=0.975;exitDx=0;exitDy=0;exitPerimeter=0;entryX=0.22;entryY=0.05;entryDx=0;entryDy=0;entryPerimeter=0;" edge="1" parent="58-anCdXrAWBHiYPlrrt-1" source="Kcp9mlnTOB3vgcsuf8J1-13" target="HyXrC_I54JldlYl7seNr-3">
          <mxGeometry relative="1" as="geometry">
            <mxPoint x="710" y="-1540" as="sourcePoint" />
            <mxPoint x="607.4341649025264" y="-1526.324555320337" as="targetPoint" />
          </mxGeometry>
        </mxCell>
        <mxCell id="HyXrC_I54JldlYl7seNr-16" value="" style="endArrow=none;html=1;rounded=0;exitX=0;exitY=0;exitDx=0;exitDy=0;entryX=1;entryY=1;entryDx=0;entryDy=0;" edge="1" parent="58-anCdXrAWBHiYPlrrt-1" source="HyXrC_I54JldlYl7seNr-4" target="Kcp9mlnTOB3vgcsuf8J1-13">
          <mxGeometry relative="1" as="geometry">
            <mxPoint x="720" y="-1530" as="sourcePoint" />
            <mxPoint x="617.4341649025264" y="-1516.324555320337" as="targetPoint" />
          </mxGeometry>
        </mxCell>
        <mxCell id="HyXrC_I54JldlYl7seNr-17" value="" style="endArrow=none;html=1;rounded=0;exitX=0;exitY=0.75;exitDx=0;exitDy=0;entryX=0.77;entryY=0.1;entryDx=0;entryDy=0;entryPerimeter=0;" edge="1" parent="58-anCdXrAWBHiYPlrrt-1" source="Kcp9mlnTOB3vgcsuf8J1-13" target="HyXrC_I54JldlYl7seNr-5">
          <mxGeometry relative="1" as="geometry">
            <mxPoint x="730" y="-1520" as="sourcePoint" />
            <mxPoint x="627.4341649025264" y="-1506.324555320337" as="targetPoint" />
          </mxGeometry>
        </mxCell>
        <mxCell id="HyXrC_I54JldlYl7seNr-18" value="" style="endArrow=none;html=1;rounded=0;entryX=0;entryY=0.5;entryDx=0;entryDy=0;exitX=1;exitY=0.25;exitDx=0;exitDy=0;" edge="1" parent="58-anCdXrAWBHiYPlrrt-1" source="Kcp9mlnTOB3vgcsuf8J1-11" target="HyXrC_I54JldlYl7seNr-9">
          <mxGeometry relative="1" as="geometry">
            <mxPoint x="1430" y="-1400" as="sourcePoint" />
            <mxPoint x="1590" y="-1400" as="targetPoint" />
          </mxGeometry>
        </mxCell>
        <mxCell id="HyXrC_I54JldlYl7seNr-20" value="Ajoute/supprime" style="shape=rhombus;perimeter=rhombusPerimeter;whiteSpace=wrap;html=1;align=center;" vertex="1" parent="58-anCdXrAWBHiYPlrrt-1">
          <mxGeometry x="930" y="-1420" width="120" height="60" as="geometry" />
        </mxCell>
        <mxCell id="HyXrC_I54JldlYl7seNr-21" value="réserve" style="shape=rhombus;perimeter=rhombusPerimeter;whiteSpace=wrap;html=1;align=center;" vertex="1" parent="58-anCdXrAWBHiYPlrrt-1">
          <mxGeometry x="1340" y="-1229" width="120" height="60" as="geometry" />
        </mxCell>
        <mxCell id="HyXrC_I54JldlYl7seNr-22" value="Ajoute" style="shape=rhombus;perimeter=rhombusPerimeter;whiteSpace=wrap;html=1;align=center;" vertex="1" parent="58-anCdXrAWBHiYPlrrt-1">
          <mxGeometry x="900" y="-1650" width="120" height="60" as="geometry" />
        </mxCell>
        <mxCell id="HyXrC_I54JldlYl7seNr-25" value="(0,1)" style="text;html=1;align=center;verticalAlign=middle;resizable=0;points=[];autosize=1;strokeColor=none;fillColor=none;" vertex="1" parent="58-anCdXrAWBHiYPlrrt-1">
          <mxGeometry x="810" y="-1650" width="40" height="20" as="geometry" />
        </mxCell>
        <mxCell id="HyXrC_I54JldlYl7seNr-26" value="(1,1)" style="text;html=1;align=center;verticalAlign=middle;resizable=0;points=[];autosize=1;strokeColor=none;fillColor=none;" vertex="1" parent="58-anCdXrAWBHiYPlrrt-1">
          <mxGeometry x="1030" y="-1540" width="40" height="20" as="geometry" />
        </mxCell>
        <mxCell id="HyXrC_I54JldlYl7seNr-27" value="Ajoute/supprime" style="shape=rhombus;perimeter=rhombusPerimeter;whiteSpace=wrap;html=1;align=center;" vertex="1" parent="58-anCdXrAWBHiYPlrrt-1">
          <mxGeometry x="1450" y="-1520" width="120" height="60" as="geometry" />
        </mxCell>
        <mxCell id="HyXrC_I54JldlYl7seNr-28" value="(1,n)" style="text;html=1;align=center;verticalAlign=middle;resizable=0;points=[];autosize=1;strokeColor=none;fillColor=none;" vertex="1" parent="58-anCdXrAWBHiYPlrrt-1">
          <mxGeometry x="1180" y="-1280" width="40" height="20" as="geometry" />
        </mxCell>
        <mxCell id="HyXrC_I54JldlYl7seNr-29" value="(1,n)" style="text;html=1;align=center;verticalAlign=middle;resizable=0;points=[];autosize=1;strokeColor=none;fillColor=none;" vertex="1" parent="58-anCdXrAWBHiYPlrrt-1">
          <mxGeometry x="1700" y="-1249" width="40" height="20" as="geometry" />
        </mxCell>
        <mxCell id="HyXrC_I54JldlYl7seNr-30" value="(1,1)" style="text;html=1;align=center;verticalAlign=middle;resizable=0;points=[];autosize=1;strokeColor=none;fillColor=none;" vertex="1" parent="58-anCdXrAWBHiYPlrrt-1">
          <mxGeometry x="1340" y="-1520" width="40" height="20" as="geometry" />
        </mxCell>
        <mxCell id="HyXrC_I54JldlYl7seNr-31" value="(1,1)" style="text;html=1;align=center;verticalAlign=middle;resizable=0;points=[];autosize=1;strokeColor=none;fillColor=none;" vertex="1" parent="58-anCdXrAWBHiYPlrrt-1">
          <mxGeometry x="1650" y="-1430" width="40" height="20" as="geometry" />
        </mxCell>
        <mxCell id="HyXrC_I54JldlYl7seNr-32" value="(n,1)" style="text;html=1;align=center;verticalAlign=middle;resizable=0;points=[];autosize=1;strokeColor=none;fillColor=none;" vertex="1" parent="58-anCdXrAWBHiYPlrrt-1">
          <mxGeometry x="640" y="-1530" width="40" height="20" as="geometry" />
        </mxCell>
        <mxCell id="HyXrC_I54JldlYl7seNr-33" value="(1,n)" style="text;html=1;align=center;verticalAlign=middle;resizable=0;points=[];autosize=1;strokeColor=none;fillColor=none;" vertex="1" parent="58-anCdXrAWBHiYPlrrt-1">
          <mxGeometry x="850" y="-1300" width="40" height="20" as="geometry" />
        </mxCell>
        <mxCell id="HyXrC_I54JldlYl7seNr-34" value="Enlever/inclure" style="shape=rhombus;perimeter=rhombusPerimeter;whiteSpace=wrap;html=1;align=center;" vertex="1" parent="58-anCdXrAWBHiYPlrrt-1">
          <mxGeometry x="630" y="-1400" width="120" height="60" as="geometry" />
        </mxCell>
      </root>
    </mxGraphModel>
  </diagram>
</mxfile>
